<svg xmlns="http://www.w3.org/2000/svg" width="170.39" height="169.08" viewBox="0 0 170.39 169.08"><defs><style>.cls-1{fill:#9ae3d9;}</style></defs><title>icon-vector</title><g id="Layer_2" data-name="Layer 2"><g id="Layer_1-2" data-name="Layer 1"><path class="cls-1" d="M69.7,38.5c11.76-6.92,24.77-9.11,38.16-9.68A3.68,3.68,0,0,1,110.22,30c3.34,3.25,6.53,6.66,9.89,9.89,1.42,1.35,1.53,2.56.85,4.36a175.73,175.73,0,0,1-13.57,28.52c-6.07,10.14-12.58,20-18.94,30-2.6,4.07-2.12,7.36,1.74,9.75a31,31,0,0,1,14.15,19c1.22,4.6,1.53,9.45,2.2,14.19.44,3.09,2.1,5.26,5.22,5.31q17.64.28,35.27,0c3.43-.06,5.29-2.63,5.42-6.07a69.42,69.42,0,0,1,.47-7.5c1.57-10.44,5.44-19.56,14.83-25.52,2.94-1.86,3.37-5.37,1.49-8.31-5.89-9.17-11.92-18.26-17.52-27.6a193.14,193.14,0,0,1-15.5-31.88,3.5,3.5,0,0,1,.92-4.35c4.17-4,8.23-8.21,12.26-12.39,3-3.1,2.95-6.43-.11-9.46q-8-8-16.17-15.79c-3-2.91-6-2.89-9.07,0C119.66,6.44,115.26,10.66,111,15a6,6,0,0,1-4.73,1.9q-41.1-.09-82.2,0c-2.25,0-4-.35-5.65-2.17-3.22-3.46-8.76-3.91-12.94-1.55A11,11,0,0,0,.25,25a10.48,10.48,0,0,0,7.58,8.29A10.71,10.71,0,0,0,18.9,30.4a4.9,4.9,0,0,1,2.8-1.59c13.41-.11,26.82-.08,40.38-.08-3.59,2.93-7.21,5.52-10.41,8.55-14.5,13.79-21,31.14-22,50.78a5.68,5.68,0,0,1-1.83,4.12c-4.26,4.16-8.44,8.4-12.63,12.63-3.27,3.3-3.32,6.39,0,9.73q7.91,8.07,16,16c3,3,6.3,3,9.27,0q8-7.95,16-16c3.25-3.3,3.22-6.47,0-9.76-4.4-4.43-8.87-8.79-13.17-13.3a5.16,5.16,0,0,1-1.34-3.37,66,66,0,0,1,.94-9.82C46,61.18,54.43,47.49,69.7,38.5Zm69.87,40.33q7.65,12.6,15.45,25.09c.81,1.29,1,2-.22,3.24-8.44,8.23-12.5,18.52-13.76,30.05-.16,1.44-.65,2-2.1,2-6.31,0-12.62,0-18.94,0-1.47,0-2-.59-2.13-2-1-7.55-3.09-14.78-7.41-21.11a87,87,0,0,0-8-9.47c-.89-1-1-1.59-.34-2.74C108.73,93,115.33,82,122,71c.06-.12.2-.19.61-.55v21.2c0,2.34.58,4.4,2.64,5.8,3.7,2.51,8.82.45,9.12-4,.4-6,.24-12,.32-18.06a20.09,20.09,0,0,1,.41-4.76C136.56,73.38,138,76.17,139.57,78.83ZM121,21.87c2.28-2.57,4.63-5.06,7.09-7.72L136.54,23l-8.24,8c-2.34-2.31-5-4.87-7.54-7.53C120.53,23.21,120.72,22.22,121,21.87ZM43.44,108.93a1.64,1.64,0,0,1,.05,1.59c-2.41,2.61-4.92,5.15-7.49,7.81l-8.18-8.41,8.23-8.19C38.35,104,40.94,106.39,43.44,108.93Z"/><path class="cls-1" d="M167.94,158.48a9.73,9.73,0,0,0-4.64-1.22c-11.54-.1-23.08-.06-34.61-.06H96.87c-1.43,0-2.87,0-4.3,0a5.9,5.9,0,0,0-.2,11.79,17.77,17.77,0,0,0,1.93.05h68.58A17.1,17.1,0,0,0,165,169a5.9,5.9,0,0,0,5.17-4.5A5.48,5.48,0,0,0,167.94,158.48Z"/></g></g></svg>