<svg xmlns="http://www.w3.org/2000/svg" width="79.56" height="17.57" viewBox="0 0 79.56 17.57"><defs><style>.cls-1{fill:#6ba8d9;}.cls-1,.cls-2,.cls-3{opacity:0.9;}.cls-2{fill:#3d90ce;}.cls-3{fill:#117ac3;}.cls-4{fill:#474747;}</style></defs><title>logo-schema</title><g id="Layer_2" data-name="Layer 2"><g id="Layer_1-2" data-name="Layer 1"><path class="cls-1" d="M8.1,17.57,0,12.89,8.1,8.21l8.11,4.68ZM2,12.89l6.1,3.53,6.11-3.53L8.1,9.36Z"/><path class="cls-2" d="M8.1,13.47,0,8.79,8.1,4.1l8.11,4.69ZM2,8.79l6.1,3.52,6.11-3.52L8.1,5.26Z"/><path class="cls-3" d="M8.1,9.36,0,4.68,8.1,0l8.11,4.68ZM2,4.68,8.1,8.21l6.11-3.53L8.1,1.16Z"/><path class="cls-4" d="M31.19,10.77a3.09,3.09,0,0,1-.35,1.49,3,3,0,0,1-1,1.05,4.12,4.12,0,0,1-1.49.63,8.1,8.1,0,0,1-1.91.21c-.31,0-.63,0-.94,0l-.9-.09-.81-.13-.69-.15V12.18a7.74,7.74,0,0,0,1.53.4,11.13,11.13,0,0,0,1.93.15,6.36,6.36,0,0,0,1.33-.12,2.68,2.68,0,0,0,.9-.37,1.48,1.48,0,0,0,.51-.58,2,2,0,0,0,.16-.79,1.29,1.29,0,0,0-.27-.83,2.7,2.7,0,0,0-.71-.61,7.61,7.61,0,0,0-1-.49l-1.14-.45c-.39-.16-.77-.33-1.14-.52a4.58,4.58,0,0,1-1-.65,2.91,2.91,0,0,1-.71-.89,2.54,2.54,0,0,1-.27-1.21A3,3,0,0,1,23.54,4,2.75,2.75,0,0,1,24.33,3a3.89,3.89,0,0,1,1.37-.74,6.27,6.27,0,0,1,2-.29l.65,0,.71.08.7.11c.24,0,.45.09.65.14V3.76a11.26,11.26,0,0,0-1.4-.3,9,9,0,0,0-1.35-.11,3.53,3.53,0,0,0-2,.47A1.44,1.44,0,0,0,25,5.06a1.31,1.31,0,0,0,.27.83,2.73,2.73,0,0,0,.71.62,6.52,6.52,0,0,0,1,.49l1.14.46c.39.16.77.33,1.14.52a4.62,4.62,0,0,1,1,.66,3,3,0,0,1,.71.91A2.58,2.58,0,0,1,31.19,10.77Z"/><path class="cls-4" d="M39.41,13.65a6.3,6.3,0,0,1-1.27.35,7.34,7.34,0,0,1-1.34.12A4.5,4.5,0,0,1,33.47,13,4.68,4.68,0,0,1,32.3,9.52a5.56,5.56,0,0,1,.34-2,4.41,4.41,0,0,1,1-1.51,4.15,4.15,0,0,1,1.45-1,5,5,0,0,1,1.86-.34,9.22,9.22,0,0,1,1.33.1,5.89,5.89,0,0,1,1.18.33V6.68a4.81,4.81,0,0,0-1.21-.45,5.24,5.24,0,0,0-1.26-.14,2.78,2.78,0,0,0-1.15.23,2.74,2.74,0,0,0-.95.67,3.21,3.21,0,0,0-.65,1.06A4.19,4.19,0,0,0,34,9.47a3.43,3.43,0,0,0,.8,2.47,3,3,0,0,0,2.23.82,5.07,5.07,0,0,0,2.42-.58Z"/><path class="cls-4" d="M48.77,14H47.18V8.17a2.65,2.65,0,0,0-.39-1.58,1.32,1.32,0,0,0-1.13-.52,2,2,0,0,0-.6.09,1.75,1.75,0,0,0-.57.3,5.09,5.09,0,0,0-.66.57c-.23.24-.51.55-.81.91V14H41.44V1.16H43V4.87L43,6.31a5.83,5.83,0,0,1,.73-.75,3.9,3.9,0,0,1,.72-.5,2.59,2.59,0,0,1,.73-.27,3.3,3.3,0,0,1,.77-.08A2.67,2.67,0,0,1,48,5.54,3.63,3.63,0,0,1,48.77,8Z"/><path class="cls-4" d="M58.25,9c0,.22,0,.41,0,.56s0,.3,0,.43h-6.4a2.85,2.85,0,0,0,.78,2.15,3.12,3.12,0,0,0,2.25.75,7,7,0,0,0,.8,0c.27,0,.53,0,.78-.08l.71-.12.63-.15v1.3A12.16,12.16,0,0,1,56.3,14a11.47,11.47,0,0,1-1.68.11,5.8,5.8,0,0,1-2-.31,3.51,3.51,0,0,1-1.39-.93,3.69,3.69,0,0,1-.79-1.48,6.69,6.69,0,0,1-.26-2,6,6,0,0,1,.27-1.82,4.76,4.76,0,0,1,.81-1.51,3.9,3.9,0,0,1,1.31-1,3.79,3.79,0,0,1,1.75-.38A4.47,4.47,0,0,1,56,5a3.39,3.39,0,0,1,1.24.85A3.62,3.62,0,0,1,58,7.19,5.71,5.71,0,0,1,58.25,9Zm-1.64-.23a3.94,3.94,0,0,0-.12-1.11A2.4,2.4,0,0,0,56,6.74a2.17,2.17,0,0,0-.76-.57A2.62,2.62,0,0,0,54.23,6a2.28,2.28,0,0,0-.95.2,2.1,2.1,0,0,0-.73.56,2.75,2.75,0,0,0-.5.87,4,4,0,0,0-.24,1.12Z"/><path class="cls-4" d="M68.46,14V7.44a4.55,4.55,0,0,0,0-.7,1.41,1.41,0,0,0-.11-.43.48.48,0,0,0-.2-.22A.74.74,0,0,0,67.8,6a.77.77,0,0,0-.39.11,1.56,1.56,0,0,0-.38.36,5.36,5.36,0,0,0-.46.65c-.17.27-.36.6-.59,1V14H64.3V7.61a5.79,5.79,0,0,0,0-.8,1.7,1.7,0,0,0-.11-.49.53.53,0,0,0-.21-.23A.71.71,0,0,0,63.63,6a.8.8,0,0,0-.36.09,1.51,1.51,0,0,0-.37.33,4.67,4.67,0,0,0-.46.65c-.17.27-.37.62-.61,1V14H60.14V4.87h1.41l.08,1.74a8.31,8.31,0,0,1,.54-.89,3,3,0,0,1,.53-.58,1.82,1.82,0,0,1,.59-.33,2.17,2.17,0,0,1,.69-.1,1.68,1.68,0,0,1,1.3.48,2.12,2.12,0,0,1,.45,1.49,7.77,7.77,0,0,1,.5-.84,2.94,2.94,0,0,1,.52-.62,2,2,0,0,1,.62-.38,2.13,2.13,0,0,1,.78-.13c1.34,0,2,.88,2,2.64V14Z"/><path class="cls-4" d="M78.15,14l0-1.23a5.07,5.07,0,0,1-1.51,1.07,4.2,4.2,0,0,1-1.61.32,3.82,3.82,0,0,1-1.34-.2,2.36,2.36,0,0,1-.91-.55,2,2,0,0,1-.53-.82,3,3,0,0,1-.17-1,2.53,2.53,0,0,1,1-2.15,4.91,4.91,0,0,1,3-.78H78v-.8a1.69,1.69,0,0,0-.52-1.29,2.22,2.22,0,0,0-1.58-.49,7,7,0,0,0-1.52.17,11.48,11.48,0,0,0-1.55.49V5.29l.66-.22c.25-.06.51-.13.78-.18a7.55,7.55,0,0,1,.85-.13,6.79,6.79,0,0,1,.9,0,5.69,5.69,0,0,1,1.49.18,3,3,0,0,1,1.13.55,2.45,2.45,0,0,1,.7.94,3.34,3.34,0,0,1,.24,1.32V14ZM78,9.84H76A3.76,3.76,0,0,0,75,10a2.07,2.07,0,0,0-.7.33,1.29,1.29,0,0,0-.4.53,1.65,1.65,0,0,0-.13.68,1.47,1.47,0,0,0,.08.51,1,1,0,0,0,.26.42,1.31,1.31,0,0,0,.47.3,2.12,2.12,0,0,0,.71.11,3,3,0,0,0,1.25-.33,6.84,6.84,0,0,0,1.49-1Z"/></g></g></svg>